#!OML:ASF F:\VICON\USERDATA\INSTALL\Justin_Nancy\Justin_Nancy.ASF
:FULLY-SPECIFIED
:DEGREES
176
root 0.72947 17.3862 -2.02312 1.35079 -0.687962 5.01637
lowerback 6.18002 -2.09922 -6.42902
upperback -0.111995 -3.18178 2.40145
thorax -3.09805 -1.46869 6.39597
lowerneck -17.7158 -2.72454 -8.36563
upperneck 20.743 -2.48919 4.39719
head 9.66185 -1.32419 2.58811
rclavicle 5.76476e-015 -6.36111e-015
rhumerus -36.2509 -18.6744 -74.4667
rradius 27.5163
rwrist 10.9293
rhand -13.2518 14.7029
rfingers 7.12502
rthumb 12.8505 -14.8815
lclavicle 5.76476e-015 -6.36111e-015
lhumerus -22.8694 3.46467 87.0851
lradius 33.0902
lwrist -7.28348
lhand -15.7919 25.7036
lfingers 7.12502
lthumb 10.4009 415.426
rfemur -30.4541 -0.971927 15.3253
rtibia 23.5009
rfoot -1.80099 -10.2498
rtoes -1.34894
lfemur 1.79529 1.70309 -29.6806
ltibia 21.2263
lfoot -17.3578 2.75792
ltoes 3.33283
177
root 0.713713 17.3842 -1.88291 1.38671 -0.603067 5.06511
lowerback 6.26922 -2.14873 -6.54164
upperback -0.106753 -3.26063 2.42739
thorax -3.12281 -1.50523 6.49798
lowerneck -18.0286 -2.75228 -8.46846
upperneck 20.8808 -2.50509 4.53068
head 9.77263 -1.32301 2.65102
rclavicle -1.66979e-014 2.14687e-014
rhumerus -36.271 -18.8549 -74.4046
rradius 27.4035
rwrist 11.2909
rhand -13.209 12.4347
rfingers 7.12502
rthumb 12.8918 -17.1471
lclavicle -1.66979e-014 2.14687e-014
lhumerus -22.9603 3.32568 87.1291
lradius 33.864
lwrist -6.97017
lhand -15.705 25.4394
lfingers 7.12502
lthumb 10.4847 415.158
rfemur -30.0014 -0.243966 14.963
rtibia 21.0801
rfoot -2.26967 -10.2061
rtoes -1.28257
lfemur 2.57439 1.82907 -29.6146
ltibia 20.6894
lfoot -17.3396 2.54143
ltoes 2.56371
178
root 0.699936 17.3767 -1.7409 1.41819 -0.433674 5.26584
lowerback 6.35493 -2.2244 -6.76099
upperback -0.124675 -3.38524 2.3811
thorax -3.16049 -1.56199 6.58827
lowerneck -18.1065 -2.78287 -8.47872
upperneck 20.9268 -2.55712 4.60514
head 9.80809 -1.33916 2.67229
rclavicle -1.17283e-014 3.97569e-015
rhumerus -36.4168 -19.0539 -74.3311
rradius 27.3625
rwrist 11.3956
rhand -13.1665 11.1918
rfingers 7.12502
rthumb 12.9327 -18.3874
lclavicle -1.17283e-014 3.97569e-015
lhumerus -22.8646 3.08516 87.1149
lradius 34.3679
lwrist -6.39545
lhand -15.9215 25.8499
lfingers 7.12502
lthumb 10.2758 415.579
rfemur -29.5017 0.332255 14.4245
rtibia 18.798
rfoot -2.39916 -9.86911
rtoes -3.52598
lfemur 3.3288 1.71273 -29.752
ltibia 20.1827
lfoot -17.1713 2.47009
ltoes 2.0906
179
root 0.685341 17.3678 -1.59796 1.53761 -0.362257 5.3556
lowerback 6.38088 -2.28585 -6.89575
upperback -0.179404 -3.47984 2.39469
thorax -3.20851 -1.60315 6.68976
lowerneck -17.9932 -2.78827 -8.37986
upperneck 20.6985 -2.56266 4.45825
head 9.70356 -1.3488 2.6004
rclavicle 1.93815e-014 5.56597e-015
rhumerus -36.7149 -19.0482 -74.2709
rradius 27.5921
rwrist 11.3556
rhand -13.2746 10.0694
rfingers 7.12502
rthumb 12.8284 -19.5164
lclavicle 1.93815e-014 5.56597e-015
lhumerus -22.7962 3.03706 87.0939
lradius 34.8403
lwrist -6.06674
lhand -16.0608 26.3918
lfingers 7.12502
lthumb 10.1415 416.127
rfemur -29.1399 0.837799 14.0736
rtibia 16.6762
rfoot -2.63858 -9.37088
rtoes -4.62632
lfemur 3.96215 1.52877 -29.7938
ltibia 19.7337
lfoot -17.0225 2.51493
ltoes 1.49797
180
root 0.668499 17.3629 -1.45349 1.67096 -0.272992 5.36403
lowerback 6.35176 -2.34077 -6.84235
upperback -0.21311 -3.54974 2.33969
thorax -3.22253 -1.63754 6.60541
lowerneck -17.7738 -2.83408 -8.31371
upperneck 20.424 -2.65188 4.42759
head 9.57134 -1.38713 2.56374
rclavicle -4.05521e-014 3.10104e-014
rhumerus -36.9181 -19.2029 -74.3252
rradius 27.6243
rwrist 11.3875
rhand -13.4655 9.18287
rfingers 7.12502
rthumb 12.6445 -20.4144
lclavicle -4.05521e-014 3.10104e-014
lhumerus -22.8057 3.01395 86.9732
lradius 35.3489
lwrist -5.88535
lhand -16.0627 26.341
lfingers 7.12502
lthumb 10.1397 416.077
rfemur -28.8107 1.30326 13.837
rtibia 14.8116
rfoot -2.87836 -8.82647
rtoes -4.51069
lfemur 4.57173 1.28142 -29.7322
ltibia 19.3601
lfoot -16.9094 2.4617
ltoes 1.32199
181
root 0.651149 17.3606 -1.31228 1.73447 -0.147898 5.46442
lowerback 6.40654 -2.37823 -6.90016
upperback -0.242066 -3.61048 2.27799
thorax -3.27434 -1.66396 6.58166
lowerneck -17.7189 -2.81971 -8.32248
upperneck 20.4797 -2.66254 4.53928
head 9.5828 -1.38149 2.60401
rclavicle -1.71949e-014 -8.74653e-015
rhumerus -36.9175 -19.9427 -74.0507
rradius 27.1387
rwrist 11.9093
rhand -13.4119 9.2968
rfingers 7.12502
rthumb 12.6961 -20.2973
lclavicle -1.71949e-014 -8.74653e-015
lhumerus -22.8422 2.87825 86.911
lradius 35.793
lwrist -5.68949
lhand -16.1994 26.2036
lfingers 7.12502
lthumb 10.0078 415.946
rfemur -28.3914 1.61641 13.5673
rtibia 13.1985
rfoot -2.8557 -8.29841
rtoes -5.08426
lfemur 5.14526 1.07711 -29.7525
ltibia 19.1284
lfoot -16.8433 2.43646
ltoes 0.582677
182
root 0.635659 17.3573 -1.16449 1.7498 -0.137039 5.40132
lowerback 6.44512 -2.37456 -6.78201
upperback -0.267709 -3.6011 2.23614
thorax -3.33408 -1.65805 6.47287
lowerneck -17.8562 -2.83173 -8.23759
upperneck 20.7575 -2.70561 4.5696
head 9.70791 -1.39337 2.59769
rclavicle -1.44119e-014 -3.18055e-015
rhumerus -37.1396 -20.6669 -73.7642
rradius 26.8146
rwrist 12.2684
rhand -13.392 10.0493
rfingers 7.12502
rthumb 12.7154 -19.5436
lclavicle -1.44119e-014 -3.18055e-015
lhumerus -22.9351 2.56192 86.8415
lradius 36.1614
lwrist -5.59771
lhand -16.458 25.9638
lfingers 7.12502
lthumb 9.75827 415.718
rfemur -27.9971 1.87741 13.5848
rtibia 12.0231
rfoot -2.78699 -7.8168
rtoes -7.04894
lfemur 5.74164 0.840891 -29.6533
ltibia 18.9705
lfoot -16.7824 2.58537
ltoes -0.771418
183
root 0.61988 17.3542 -1.01509 1.73226 -0.102236 5.24672
lowerback 6.53223 -2.41247 -6.61157
upperback -0.302959 -3.64305 2.28842
thorax -3.42005 -1.67676 6.44125
lowerneck -17.7602 -2.85064 -8.28875
upperneck 20.7516 -2.71812 4.53716
head 9.6896 -1.40808 2.59325
rclavicle 6.26172e-015 1.43125e-014
rhumerus -37.4286 -20.3539 -73.8639
rradius 26.9853
rwrist 11.3625
rhand -13.5349 10.3641
rfingers 7.12502
rthumb 12.5775 -19.2373
lclavicle 6.26172e-015 1.43125e-014
lhumerus -23.1009 2.72351 86.8276
lradius 36.4287
lwrist -5.81975
lhand -16.6559 25.1699
lfingers 7.12502
lthumb 9.5674 414.933
rfemur -27.6452 1.83339 13.8585
rtibia 11.3115
rfoot -2.94686 -7.16558
rtoes -8.16869
lfemur 6.30224 0.596287 -29.4711
ltibia 18.9964
lfoot -16.7162 2.85669
ltoes -3.11014
184
root 0.602037 17.3467 -0.867813 1.64779 -0.0267313 5.25562
lowerback 6.61836 -2.48334 -6.72511
upperback -0.212845 -3.74754 2.35878
thorax -3.34586 -1.73243 6.58974
lowerneck -17.759 -2.83018 -8.26539
upperneck 20.6183 -2.64327 4.33137
head 9.63455 -1.39323 2.52537
rclavicle -1.59028e-014 2.8625e-014
rhumerus -37.3101 -19.9331 -74.0364
rradius 27.1235
rwrist 10.8104
rhand -13.0708 9.5179
rfingers 7.12502
rthumb 13.0249 -20.0555
lclavicle -1.59028e-014 2.8625e-014
lhumerus -23.0954 3.02775 86.8359
lradius 36.7092
lwrist -5.80348
lhand -17.0063 24.6627
lfingers 7.12502
lthumb 9.2293 414.441
rfemur -27.346 1.95573 13.8758
rtibia 11.1206
rfoot -3.22584 -6.78947
rtoes -7.55694
lfemur 6.81387 0.269028 -29.4535
ltibia 19.1841
lfoot -16.6877 3.1581
ltoes -6.87056
185
root 0.57804 17.3381 -0.721741 1.56358 0.0500276 5.04785
lowerback 6.79055 -2.52047 -6.63579
upperback -0.1611 -3.79539 2.4832
thorax -3.37782 -1.75719 6.68344
lowerneck -17.8114 -2.84848 -8.39697
upperneck 20.469 -2.63817 4.39476
head 9.59437 -1.39136 2.56819
rclavicle 1.11319e-014 2.38542e-014
rhumerus -37.2339 -19.9982 -73.9056
rradius 26.9989
rwrist 11.314
rhand -12.5922 8.77505
rfingers 7.12502
rthumb 13.4863 -20.7683
lclavicle 1.11319e-014 2.38542e-014
lhumerus -23.1445 3.15411 86.8938
lradius 37.1008
lwrist -5.55758
lhand -17.169 24.9446
lfingers 7.12502
lthumb 9.07228 414.729
rfemur -27.1795 2.25555 14.124
rtibia 11.4771
rfoot -3.22667 -6.46149
rtoes -6.44966
lfemur 7.15876 -0.0877403 -29.1428
ltibia 19.5203
lfoot -16.723 3.2163
ltoes -11.3544
186
root 0.553915 17.3342 -0.571129 1.55098 0.0587181 4.66409
lowerback 6.8666 -2.50738 -6.34367
upperback -0.188059 -3.75432 2.62536
thorax -3.46402 -1.7363 6.6711
lowerneck -17.8155 -2.87334 -8.39048
upperneck 20.464 -2.66496 4.35641
head 9.59482 -1.40751 2.54984
rclavicle 3.02153e-014 1.82882e-014
rhumerus -37.5338 -19.7843 -73.8606
rradius 27.1061
rwrist 11.3575
rhand -12.8491 8.58088
rfingers 7.12502
rthumb 13.2387 -20.9787
lclavicle 3.02153e-014 1.82882e-014
lhumerus -23.3733 3.29623 86.9131
lradius 37.4895
lwrist -5.47703
lhand -16.7412 24.9537
lfingers 7.12502
lthumb 9.48502 414.72
rfemur -27.2358 2.25903 14.772
rtibia 12.3841
rfoot -2.96619 -5.81196
rtoes -7.03636
lfemur 7.42706 -0.36707 -28.6624
ltibia 19.9077
lfoot -16.8424 3.42039
ltoes -14.9075
187
root 0.535191 17.3295 -0.414729 1.64078 0.125222 4.57143
lowerback 6.702 -2.50994 -6.20067
upperback -0.201326 -3.73698 2.62621
thorax -3.39693 -1.73275 6.57907
lowerneck -17.6803 -2.87729 -8.54198
upperneck 20.4145 -2.68727 4.55923
head 9.55892 -1.40758 2.6433
rclavicle -7.15625e-015 -8.74653e-015
rhumerus -37.7135 -20.0519 -73.7246
rradius 26.8456
rwrist 11.2551
rhand -13.2078 8.91586
rfingers 7.12502
rthumb 12.8929 -20.6659
lclavicle -7.15625e-015 -8.74653e-015
lhumerus -23.5262 3.23157 86.9052
lradius 37.6949
lwrist -5.43303
lhand -16.4871 25.1901
lfingers 7.12502
lthumb 9.73024 414.945
rfemur -27.4513 1.98145 15.1324
rtibia 13.5835
rfoot -2.93655 -5.31059
rtoes -7.94793
lfemur 7.63273 -0.657093 -28.5284
ltibia 20.3735
lfoot -17.1304 3.77265
ltoes -17.8361
188
root 0.515358 17.3206 -0.253043 1.56765 0.320437 4.66665
lowerback 6.65962 -2.54029 -6.26897
upperback -0.1281 -3.78048 2.58938
thorax -3.28784 -1.76033 6.57623
lowerneck -17.727 -2.86807 -8.6697
upperneck 20.4652 -2.67058 4.70876
head 9.58794 -1.39304 2.71997
rclavicle -5.85421e-014 1.82882e-014
rhumerus -37.6224 -20.4668 -73.5531
rradius 26.399
rwrist 11.4058
rhand -13.3559 9.07326
rfingers 7.12502
rthumb 12.7501 -20.5174
lclavicle -5.85421e-014 1.82882e-014
lhumerus -23.4024 3.28112 86.9446
lradius 37.4534
lwrist -5.44881
lhand -16.5012 25.5621
lfingers 7.12502
lthumb 9.71665 415.318
rfemur -27.4944 1.69252 15.2634
rtibia 14.9975
rfoot -3.01464 -5.10725
rtoes -8.3918
lfemur 8.03441 -1.0203 -28.5738
ltibia 20.8644
lfoot -17.4664 3.82046
ltoes -20.4809
189
root 0.49207 17.3098 -0.0915042 1.39826 0.499906 4.719
lowerback 6.81495 -2.56226 -6.42912
upperback -0.0785731 -3.82899 2.63893
thorax -3.30202 -1.78244 6.73165
lowerneck -18.0204 -2.90221 -8.56584
upperneck 20.6954 -2.66087 4.44062
head 9.71812 -1.41079 2.61116
rclavicle -2.10712e-014 -6.36111e-015
rhumerus -37.8695 -20.247 -73.4682
rradius 26.6333
rwrist 11.2733
rhand -13.1513 9.26471
rfingers 7.12502
rthumb 12.9474 -20.3136
lclavicle -2.10712e-014 -6.36111e-015
lhumerus -23.4038 3.55085 87.0288
lradius 37.2093
lwrist -5.62816
lhand -16.7057 25.7686
lfingers 7.12502
lthumb 9.51926 415.534
rfemur -27.4252 1.60657 15.392
rtibia 16.5277
rfoot -3.30246 -5.12832
rtoes -7.20019
lfemur 8.52522 -1.27285 -28.5418
ltibia 21.3715
lfoot -17.2284 3.3862
ltoes -21.3419
